<svg width="430" height="238" viewBox="0 0 430 238" fill="none" xmlns="http://www.w3.org/2000/svg">
<g clip-path="url(#clip0)">
<path d="M221.265 236.782C214.467 237.784 207.588 238.117 200.725 237.776C184.177 236.939 167.902 232.123 153.994 223.068C147.828 219.053 141.946 214.12 138.754 207.493C134.421 198.494 135.936 187.103 142.123 179.265C144.38 176.437 147.155 174.068 150.301 172.283C150.767 172.02 151.243 171.766 151.724 171.523C156.966 168.886 162.853 167.807 168.688 168.415C178.608 169.5 187.764 175.564 193.054 184.035C197.766 191.589 199.407 200.502 200.375 209.435C200.557 211.118 200.715 212.807 200.866 214.485C200.023 219.347 198.698 224.112 196.909 228.711C196.818 228.935 196.744 229.165 196.686 229.4C197.7 231.601 198.664 233.821 199.58 236.062C200.44 236.529 201.403 236.773 202.382 236.772H221.225L221.265 236.782Z" fill="#F2F2F2"/>
<path d="M199.189 237.213C199.065 237.269 198.93 237.299 198.793 237.302C198.656 237.305 198.52 237.281 198.393 237.231C198.266 237.181 198.15 237.106 198.051 237.011C197.953 236.915 197.875 236.801 197.822 236.675C197.74 236.483 197.665 236.29 197.583 236.097C196.854 234.323 196.089 232.565 195.288 230.825C185.039 208.363 169.752 188.568 150.615 172.978C150.505 172.901 150.418 172.796 150.363 172.674C150.308 172.551 150.286 172.417 150.301 172.283C150.329 172.131 150.391 171.986 150.482 171.861C150.573 171.735 150.692 171.632 150.829 171.559C150.966 171.486 151.118 171.444 151.273 171.438C151.428 171.432 151.582 171.461 151.725 171.523C151.801 171.558 151.872 171.602 151.937 171.655C160.125 178.328 167.636 185.791 174.363 193.937C181.09 202.075 187.014 210.846 192.051 220.127C193.424 222.662 194.727 225.233 195.962 227.839C196.205 228.356 196.449 228.878 196.687 229.4C197.7 231.601 198.664 233.821 199.58 236.062C199.595 236.097 199.61 236.138 199.625 236.174C199.672 236.269 199.698 236.374 199.701 236.481C199.704 236.587 199.684 236.694 199.642 236.792C199.601 236.89 199.539 236.979 199.461 237.051C199.383 237.124 199.291 237.179 199.189 237.213Z" fill="white"/>
<path d="M131.99 170.347C142.903 170.347 151.75 161.494 151.75 150.574C151.75 139.654 142.903 130.802 131.99 130.802C121.076 130.802 112.229 139.654 112.229 150.574C112.229 161.494 121.076 170.347 131.99 170.347Z" fill="#DF8654"/>
<path d="M130.031 158.117C129.586 158.118 129.153 157.974 128.798 157.707L128.776 157.691L124.132 154.133C123.917 153.968 123.736 153.762 123.6 153.528C123.465 153.293 123.376 153.034 123.341 152.765C123.305 152.496 123.323 152.223 123.393 151.961C123.463 151.699 123.583 151.453 123.748 151.238C123.913 151.023 124.119 150.842 124.353 150.706C124.588 150.571 124.847 150.483 125.116 150.447C125.384 150.412 125.657 150.429 125.919 150.499C126.181 150.57 126.426 150.691 126.641 150.856L129.649 153.163L136.757 143.888C136.922 143.673 137.128 143.492 137.362 143.356C137.597 143.221 137.856 143.133 138.125 143.097C138.393 143.062 138.666 143.079 138.928 143.15C139.19 143.22 139.435 143.341 139.65 143.506L139.606 143.566L139.651 143.506C140.085 143.84 140.369 144.332 140.44 144.875C140.512 145.417 140.365 145.966 140.033 146.401L131.672 157.311C131.479 157.563 131.23 157.766 130.945 157.906C130.661 158.046 130.348 158.118 130.031 158.117Z" fill="white"/>
<path d="M429.397 238H0.60325C0.443552 238 0.290556 237.936 0.177795 237.823C0.065034 237.709 0.00170898 237.556 0.00170898 237.396C0.00170898 237.237 0.065034 237.083 0.177795 236.97C0.290556 236.857 0.443552 236.793 0.60325 236.793H429.397C429.556 236.793 429.709 236.857 429.822 236.97C429.935 237.083 429.998 237.237 429.998 237.396C429.998 237.556 429.935 237.709 429.822 237.823C429.709 237.936 429.556 238 429.397 238Z" fill="#3F3D56"/>
<path d="M83.8774 68.9218C91.9756 68.9218 98.5405 62.3529 98.5405 54.2497C98.5405 46.1466 91.9756 39.5776 83.8774 39.5776C75.7792 39.5776 69.2144 46.1466 69.2144 54.2497C69.2144 62.3529 75.7792 68.9218 83.8774 68.9218Z" fill="#3D3D3D"/>
<path d="M72.4322 46.3389C74.8017 43.968 75.2819 40.6044 73.5048 38.8262C71.7277 37.048 68.3661 37.5285 65.9966 39.8994C63.6271 42.2704 63.147 45.634 64.9241 47.4122C66.7012 49.1904 70.0627 48.7099 72.4322 46.3389Z" fill="#3D3D3D"/>
<path d="M99.1602 41.6796C100.147 39.367 98.4496 36.4245 95.368 35.1073C92.2864 33.7901 88.988 34.5971 88.0007 36.9097C87.0135 39.2224 88.7113 42.1649 91.7929 43.482C94.8745 44.7992 98.1729 43.9922 99.1602 41.6796Z" fill="#3D3D3D"/>
<path d="M124.708 138.958C125.078 138.253 125.29 137.476 125.328 136.68C125.366 135.885 125.229 135.091 124.927 134.355C124.624 133.618 124.165 132.957 123.58 132.417C122.994 131.877 122.298 131.473 121.54 131.232L100.353 86.3842L90.6611 93.1844L114.535 135.13C114.214 136.431 114.382 137.805 115.006 138.991C115.631 140.177 116.668 141.093 117.922 141.565C119.176 142.037 120.559 142.032 121.81 141.552C123.061 141.071 124.092 140.148 124.708 138.958V138.958Z" fill="#FFB8B8"/>
<path d="M105.212 93.8662L93.9591 98.901C93.639 99.0443 93.2917 99.1168 92.941 99.1137C92.5903 99.1105 92.2444 99.0318 91.9268 98.8828C91.6093 98.7338 91.3276 98.5181 91.1009 98.2504C90.8741 97.9826 90.7077 97.6692 90.613 97.3313L87.2947 85.4916C86.5716 83.8484 86.5292 81.9853 87.1767 80.3108C87.8243 78.6363 89.109 77.2871 90.7492 76.559C92.3894 75.8309 94.2512 75.7833 95.9265 76.4266C97.6017 77.0699 98.9536 78.3517 99.6858 79.9909L106.273 90.3242C106.462 90.6202 106.584 90.9533 106.633 91.3009C106.681 91.6485 106.654 92.0024 106.553 92.3385C106.452 92.6746 106.28 92.9851 106.049 93.2487C105.817 93.5124 105.532 93.723 105.212 93.8662Z" fill="#17A6A5"/>
<path d="M53.2435 143.404C54.0186 143.224 54.7448 142.876 55.371 142.385C55.9971 141.893 56.508 141.271 56.8676 140.56C57.2272 139.85 57.4268 139.069 57.4524 138.274C57.4779 137.478 57.3288 136.686 57.0154 135.954L77.0808 90.5933L65.6024 87.7004L49.4881 133.198C48.2942 133.807 47.3648 134.832 46.8759 136.08C46.387 137.328 46.3727 138.712 46.8356 139.97C47.2985 141.228 48.2065 142.273 49.3875 142.905C50.5685 143.538 51.9405 143.716 53.2435 143.404H53.2435Z" fill="#FFB8B8"/>
<path d="M47.7737 225.625L53.6105 227.751L64.5856 206.236L55.9706 203.097L47.7737 225.625Z" fill="#FFB8B8"/>
<path d="M62.8938 237.275L44.5495 230.592L47.1301 223.5L58.3868 227.601C60.2666 228.286 61.7974 229.69 62.6426 231.504C63.4879 233.319 63.5782 235.395 62.8938 237.275Z" fill="#2F2E41"/>
<path d="M61.5797 213.243C61.2216 213.243 60.8679 213.164 60.5442 213.01L53.8362 209.831C53.2863 209.573 52.8529 209.118 52.6214 208.556C52.3899 207.994 52.3771 207.366 52.5855 206.795L71.5166 154.338C71.6734 153.903 71.9501 153.522 72.3146 153.239C72.6792 152.956 73.1165 152.781 73.576 152.737C74.0354 152.692 74.4981 152.779 74.9103 152.987C75.3225 153.194 75.6674 153.515 75.9048 153.911L85.9178 170.61C86.1406 170.982 86.2605 171.407 86.2651 171.84C86.2697 172.274 86.159 172.701 85.9442 173.078L63.7078 212.015C63.4923 212.389 63.1821 212.699 62.8085 212.915C62.4349 213.131 62.011 213.244 61.5797 213.243Z" fill="#212121"/>
<path d="M84.3426 70.2043C91.2154 70.2043 96.787 64.6294 96.787 57.7523C96.787 50.8752 91.2154 45.3002 84.3426 45.3002C77.4697 45.3002 71.8982 50.8752 71.8982 57.7523C71.8982 64.6294 77.4697 70.2043 84.3426 70.2043Z" fill="#FFB8B8"/>
<path d="M101.948 114.367L79.9136 108.304L68.1945 84.8513C67.6315 83.7246 67.3657 82.4726 67.4223 81.2143C67.4789 79.9559 67.856 78.7329 68.5178 77.6613C69.1797 76.5898 70.1042 75.7054 71.2038 75.092C72.3033 74.4786 73.5413 74.1566 74.8002 74.1566H92.3308C94.1504 74.1555 95.9063 74.8274 97.2607 76.0433C101.963 80.2586 111.843 92.4112 102.043 114.155L101.948 114.367Z" fill="#17A6A5"/>
<path d="M74.3645 98.7058L63.2008 93.477C62.8832 93.3282 62.6013 93.1127 62.3744 92.8451C62.1475 92.5775 61.981 92.2641 61.886 91.9262C61.7911 91.5884 61.77 91.2341 61.8243 90.8874C61.8786 90.5407 62.0069 90.2097 62.2005 89.9171L68.9851 79.6645C69.7551 78.0429 71.1363 76.7929 72.8259 76.1886C74.5156 75.5843 76.3757 75.6751 77.9986 76.441C79.6214 77.2069 80.8745 78.5855 81.4832 80.2744C82.0919 81.9634 82.0064 83.8249 81.2455 85.4509L77.7373 97.1942C77.6367 97.5304 77.4649 97.8409 77.2336 98.1047C77.0023 98.3685 76.7169 98.5793 76.3968 98.7227C76.0767 98.8662 75.7295 98.9389 75.3788 98.936C75.0281 98.9331 74.6822 98.8546 74.3645 98.7058Z" fill="#17A6A5"/>
<path d="M87.8711 231.504H94.0824L97.0379 207.529L87.8696 207.53L87.8711 231.504Z" fill="#FFB8B8"/>
<path d="M106.062 237.275L86.5401 237.275L86.5397 229.728L98.5194 229.728C100.52 229.727 102.438 230.523 103.853 231.938C105.268 233.353 106.062 235.273 106.062 237.275Z" fill="#2F2E41"/>
<path d="M90.2163 222.368C89.6578 222.369 89.1161 222.177 88.6825 221.825C88.2489 221.472 87.95 220.981 87.8361 220.434C86.0506 212.016 76.7773 168.899 69.5395 146.689C62.1755 124.092 74.7169 113.8 77.3057 111.966C77.5814 111.771 77.8005 111.507 77.9405 111.199L79.8214 107.059C80.0164 106.632 80.3301 106.27 80.7251 106.016C81.1201 105.762 81.5797 105.626 82.0493 105.626H82.0645C96.1645 105.711 100.905 110.158 102.288 112.066C102.492 112.351 102.632 112.676 102.698 113.02C102.764 113.363 102.754 113.717 102.67 114.057L93.7485 150.887C93.6932 151.115 93.6807 151.352 93.7116 151.585L102.588 218.456C102.63 218.777 102.609 219.104 102.524 219.417C102.439 219.73 102.293 220.023 102.093 220.278C101.894 220.534 101.646 220.748 101.364 220.907C101.081 221.065 100.77 221.166 100.448 221.204L90.5028 222.352C90.4077 222.363 90.312 222.368 90.2163 222.368Z" fill="#212121"/>
<path d="M71.2664 49.92C74.1101 51.8812 77.4853 52.9249 80.9391 52.9111C79.7071 53.7659 78.3046 54.3432 76.8281 54.6034C81.4201 55.589 86.1659 55.6157 90.7687 54.6818C91.7918 54.5177 92.779 54.1784 93.687 53.6789C94.1395 53.426 94.5337 53.0807 94.8441 52.6654C95.1544 52.2501 95.3739 51.7741 95.4883 51.2683C95.7942 49.52 94.4327 47.9316 93.0178 46.8611C90.8515 45.247 88.3538 44.135 85.7053 43.6055C83.0567 43.0759 80.3237 43.142 77.7039 43.799C75.9932 44.2415 74.2795 44.9891 73.1684 46.3637C72.0573 47.7383 71.7282 49.8576 72.7868 51.2731L71.2664 49.92Z" fill="#3D3D3D"/>
<path d="M299.698 103.932C303.336 103.932 306.285 100.981 306.285 97.341C306.285 93.701 303.336 90.7502 299.698 90.7502C296.06 90.7502 293.111 93.701 293.111 97.341C293.111 100.981 296.06 103.932 299.698 103.932Z" fill="#DF8654"/>
<path d="M299.045 99.8552C298.897 99.8555 298.753 99.8075 298.634 99.7186L298.627 99.7131L297.079 98.5272C297.007 98.4723 296.947 98.4038 296.901 98.3255C296.856 98.2472 296.826 98.1608 296.814 98.0711C296.802 97.9813 296.808 97.8901 296.831 97.8027C296.855 97.7152 296.895 97.6332 296.95 97.5614C297.005 97.4895 297.074 97.4293 297.152 97.384C297.23 97.3387 297.317 97.3094 297.406 97.2976C297.496 97.2858 297.587 97.2919 297.675 97.3154C297.762 97.3389 297.844 97.3795 297.915 97.4347L298.918 98.204L301.287 95.1121C301.342 95.0404 301.411 94.9802 301.489 94.935C301.567 94.8898 301.654 94.8604 301.743 94.8486C301.833 94.8367 301.924 94.8427 302.011 94.866C302.098 94.8894 302.18 94.9297 302.252 94.9847L302.237 95.0047L302.252 94.985C302.397 95.0962 302.491 95.2602 302.515 95.4411C302.539 95.6219 302.49 95.8049 302.379 95.9498L299.592 99.5866C299.528 99.6704 299.445 99.7383 299.35 99.7848C299.255 99.8314 299.151 99.8555 299.045 99.8552Z" fill="white"/>
<path d="M299.698 123.197C303.336 123.197 306.285 120.246 306.285 116.606C306.285 112.966 303.336 110.016 299.698 110.016C296.06 110.016 293.111 112.966 293.111 116.606C293.111 120.246 296.06 123.197 299.698 123.197Z" fill="#DF8654"/>
<path d="M299.045 119.121C298.897 119.121 298.753 119.073 298.634 118.984L298.627 118.978L297.079 117.793C297.007 117.738 296.947 117.669 296.901 117.591C296.856 117.513 296.826 117.426 296.814 117.336C296.802 117.247 296.808 117.156 296.831 117.068C296.855 116.981 296.895 116.899 296.95 116.827C297.005 116.755 297.074 116.695 297.152 116.649C297.23 116.604 297.317 116.575 297.406 116.563C297.496 116.551 297.587 116.557 297.675 116.581C297.762 116.604 297.844 116.645 297.915 116.7L298.918 117.469L301.287 114.377C301.342 114.306 301.411 114.246 301.489 114.2C301.567 114.155 301.654 114.126 301.743 114.114C301.833 114.102 301.924 114.108 302.011 114.131C302.098 114.155 302.18 114.195 302.252 114.25L302.237 114.27L302.252 114.25C302.397 114.362 302.491 114.526 302.515 114.706C302.539 114.887 302.49 115.07 302.379 115.215L299.592 118.852C299.528 118.936 299.445 119.004 299.35 119.05C299.255 119.097 299.151 119.121 299.045 119.121Z" fill="white"/>
<path d="M303.245 145.504C306.882 145.504 309.831 142.554 309.831 138.914C309.831 135.274 306.882 132.323 303.245 132.323C299.607 132.323 296.658 135.274 296.658 138.914C296.658 142.554 299.607 145.504 303.245 145.504Z" fill="#DF8654"/>
<path d="M302.592 141.428C302.444 141.428 302.299 141.38 302.181 141.291L302.173 141.286L300.626 140.1C300.554 140.045 300.493 139.976 300.448 139.898C300.402 139.82 300.373 139.733 300.361 139.644C300.349 139.554 300.355 139.463 300.378 139.375C300.401 139.288 300.442 139.206 300.497 139.134C300.552 139.062 300.62 139.002 300.699 138.957C300.777 138.911 300.863 138.882 300.953 138.87C301.043 138.859 301.134 138.865 301.221 138.888C301.309 138.912 301.39 138.952 301.462 139.007L302.465 139.777L304.834 136.685C304.889 136.613 304.958 136.553 305.036 136.508C305.114 136.462 305.2 136.433 305.29 136.421C305.379 136.409 305.47 136.415 305.558 136.439C305.645 136.462 305.727 136.502 305.798 136.557L305.784 136.577L305.799 136.558C305.943 136.669 306.038 136.833 306.062 137.014C306.086 137.195 306.037 137.378 305.926 137.523L303.139 141.159C303.075 141.243 302.992 141.311 302.897 141.358C302.802 141.404 302.698 141.428 302.592 141.428Z" fill="white"/>
<path d="M366.759 193.941C366.691 193.941 366.648 193.94 366.633 193.939L358.455 193.94V192.733H366.663C366.853 192.74 370.729 192.85 374.301 188.513C379.624 182.049 383.996 166.048 374.592 126.527C361.946 73.3843 372.493 26.436 377.614 8.71775C377.867 7.84116 377.912 6.91786 377.746 6.0208C377.581 5.12375 377.209 4.27753 376.66 3.54899C376.111 2.82046 375.401 2.22956 374.585 1.82301C373.769 1.41646 372.869 1.2054 371.958 1.20648H249.832C248.904 1.20773 247.989 1.42801 247.161 1.84946C246.334 2.2709 245.617 2.88164 245.07 3.63209C242.9 6.61822 239.923 12.3548 238.06 22.7276L236.874 22.5144C238.777 11.9163 241.851 6.01085 244.095 2.92281C244.754 2.01855 245.617 1.28263 246.614 0.774791C247.611 0.26695 248.714 0.00150199 249.832 3.28354e-06H371.958C373.056 -0.00105463 374.14 0.253533 375.123 0.743654C376.107 1.23377 376.963 1.946 377.624 2.82406C378.285 3.70211 378.733 4.72195 378.932 5.80298C379.131 6.88402 379.077 7.99664 378.773 9.05295C373.678 26.6793 363.186 73.384 375.765 126.247C385.301 166.325 380.716 182.672 375.192 189.329C371.547 193.719 367.532 193.941 366.759 193.941Z" fill="#E6E6E6"/>
<path d="M344.755 215.96C344.686 215.96 344.643 215.958 344.628 215.957L336.451 215.958V214.751H344.658C344.849 214.757 348.725 214.868 352.297 210.531C357.62 204.067 361.991 188.066 352.587 148.545C339.942 95.4024 350.488 48.4541 355.61 30.7358C355.862 29.8592 355.907 28.9359 355.742 28.0388C355.576 27.1418 355.204 26.2956 354.655 25.567C354.107 24.8385 353.396 24.2476 352.58 23.8411C351.764 23.4345 350.865 23.2234 349.953 23.2245H227.828C226.899 23.2258 225.984 23.446 225.157 23.8675C224.329 24.2889 223.613 24.8997 223.065 25.6501C220.896 28.6363 217.919 34.3729 216.056 44.7457L214.869 44.5324C216.772 33.9343 219.846 28.0289 222.09 24.9408C222.749 24.0366 223.613 23.3007 224.61 22.7928C225.607 22.285 226.709 22.0195 227.828 22.018H349.953C351.052 22.017 352.135 22.2716 353.119 22.7617C354.102 23.2518 354.958 23.964 355.619 24.8421C356.28 25.7202 356.728 26.74 356.928 27.821C357.127 28.9021 357.072 30.0147 356.768 31.071C351.673 48.6973 341.181 95.4021 353.76 148.266C363.296 188.343 358.712 204.69 353.187 211.347C349.543 215.737 345.527 215.96 344.755 215.96Z" fill="#CCCCCC"/>
<path d="M331.755 170.286C319.174 117.423 329.668 70.7142 334.765 53.0914C335.068 52.035 335.122 50.9226 334.923 49.8418C334.723 48.7609 334.275 47.7413 333.614 46.8633C332.953 45.9853 332.098 45.273 331.115 44.7824C330.132 44.2919 329.048 44.0366 327.95 44.0367H205.822C204.704 44.0377 203.602 44.3028 202.605 44.8102C201.608 45.3176 200.745 46.0531 200.086 46.9569C195.156 53.7403 184.927 76.2352 196.352 138.478C202.463 171.776 202.371 194.479 200.375 209.435C199.255 217.856 197.528 223.818 195.962 227.839L195.795 228.265C195.465 229.078 195.293 229.947 195.288 230.825C195.277 231.816 195.475 232.799 195.871 233.707C196.266 234.616 196.85 235.431 197.583 236.097C198.061 236.546 198.603 236.921 199.189 237.213C199.677 237.462 200.192 237.651 200.725 237.776C201.267 237.908 201.823 237.974 202.382 237.973H322.625C322.64 237.973 322.681 237.978 322.752 237.978C323.522 237.978 327.54 237.755 331.183 233.365C336.705 226.708 341.291 210.363 331.755 170.286ZM330.291 232.549C326.719 236.888 322.843 236.777 322.655 236.772H202.382C201.419 236.771 200.47 236.535 199.62 236.084C198.769 235.632 198.042 234.979 197.502 234.181C197.027 233.491 196.708 232.706 196.567 231.881C196.426 231.055 196.467 230.209 196.686 229.4C196.744 229.165 196.818 228.935 196.909 228.711C198.698 224.112 200.023 219.347 200.867 214.485C203.724 198.895 204.256 174.839 197.538 138.26C186.199 76.4786 196.226 54.3234 201.059 47.6667C201.607 46.9173 202.324 46.3075 203.152 45.8865C203.979 45.4656 204.894 45.2452 205.822 45.2433H327.95C328.861 45.2426 329.76 45.4539 330.576 45.8605C331.391 46.267 332.101 46.8576 332.649 47.5858C333.198 48.3139 333.57 49.1596 333.735 50.0561C333.901 50.9527 333.856 51.8755 333.604 52.7517C328.482 70.4708 317.938 117.423 330.585 170.565C339.989 210.084 335.616 226.085 330.291 232.549Z" fill="#3F3D56"/>
<path d="M273.736 101.6H210.814C209.535 101.6 208.309 101.091 207.404 100.186C206.5 99.2813 205.991 98.0538 205.991 96.7739C205.991 95.494 206.5 94.2665 207.404 93.3615C208.309 92.4565 209.535 91.948 210.814 91.948H273.736C275.015 91.948 276.242 92.4565 277.146 93.3615C278.051 94.2665 278.559 95.494 278.559 96.7739C278.559 98.0538 278.051 99.2813 277.146 100.186C276.242 101.091 275.015 101.6 273.736 101.6Z" fill="#CCCCCC"/>
<path d="M273.736 122.386H210.814C209.535 122.386 208.309 121.878 207.404 120.973C206.5 120.068 205.991 118.84 205.991 117.56C205.991 116.28 206.5 115.053 207.404 114.148C208.309 113.243 209.535 112.734 210.814 112.734H273.736C275.015 112.734 276.242 113.243 277.146 114.148C278.051 115.053 278.559 116.28 278.559 117.56C278.559 118.84 278.051 120.068 277.146 120.973C276.242 121.878 275.015 122.386 273.736 122.386Z" fill="#CCCCCC"/>
<path d="M278.803 143.679H215.881C214.602 143.679 213.375 143.171 212.471 142.266C211.566 141.361 211.058 140.134 211.058 138.854C211.058 137.574 211.566 136.346 212.471 135.441C213.375 134.536 214.602 134.028 215.881 134.028H278.803C280.082 134.028 281.308 134.536 282.213 135.441C283.117 136.346 283.625 137.574 283.625 138.854C283.625 140.134 283.117 141.361 282.213 142.266C281.308 143.171 280.082 143.679 278.803 143.679Z" fill="#CCCCCC"/>
<path d="M282.349 165.987H219.428C218.149 165.987 216.922 165.478 216.017 164.573C215.113 163.668 214.605 162.441 214.605 161.161C214.605 159.881 215.113 158.654 216.017 157.749C216.922 156.843 218.149 156.335 219.428 156.335H282.349C283.628 156.335 284.855 156.843 285.76 157.749C286.664 158.654 287.172 159.881 287.172 161.161C287.172 162.441 286.664 163.668 285.76 164.573C284.855 165.478 283.628 165.987 282.349 165.987Z" fill="#CCCCCC"/>
<path d="M282.376 64.1287H237.161C236.528 64.1294 235.9 64.005 235.314 63.7628C234.728 63.5206 234.196 63.1652 233.748 62.717C233.299 62.2688 232.944 61.7366 232.701 61.1508C232.458 60.5649 232.333 59.937 232.333 59.3028C232.333 58.6687 232.458 58.0407 232.701 57.4549C232.944 56.8691 233.299 56.3369 233.748 55.8887C234.196 55.4405 234.728 55.0851 235.314 54.8429C235.9 54.6007 236.528 54.4763 237.161 54.477H282.376C283.655 54.477 284.882 54.9854 285.786 55.8904C286.691 56.7955 287.199 58.0229 287.199 59.3028C287.199 60.5827 286.691 61.8102 285.786 62.7152C284.882 63.6203 283.655 64.1287 282.376 64.1287Z" fill="#DF8654"/>
<path d="M307.298 167.752C310.936 167.752 313.885 164.801 313.885 161.161C313.885 157.521 310.936 154.57 307.298 154.57C303.66 154.57 300.711 157.521 300.711 161.161C300.711 164.801 303.66 167.752 307.298 167.752Z" fill="#CCCCCC"/>
<path d="M285.389 187.787H222.468C221.189 187.787 219.962 187.279 219.057 186.374C218.153 185.469 217.645 184.241 217.645 182.961C217.645 181.681 218.153 180.454 219.057 179.549C219.962 178.644 221.189 178.135 222.468 178.135H285.389C286.668 178.135 287.895 178.644 288.8 179.549C289.704 180.454 290.212 181.681 290.212 182.961C290.212 184.241 289.704 185.469 288.8 186.374C287.895 187.279 286.668 187.787 285.389 187.787Z" fill="#CCCCCC"/>
<path d="M310.338 189.552C313.976 189.552 316.925 186.601 316.925 182.961C316.925 179.321 313.976 176.37 310.338 176.37C306.7 176.37 303.751 179.321 303.751 182.961C303.751 186.601 306.7 189.552 310.338 189.552Z" fill="#CCCCCC"/>
</g>
<defs>
<clipPath id="clip0">
<rect width="430" height="238" fill="white"/>
</clipPath>
</defs>
</svg>
