<svg width="446" height="446" viewBox="0 0 446 446" fill="none" xmlns="http://www.w3.org/2000/svg">
<path d="M290.406 85.0537L204.401 194.012C203.596 195.029 202.421 195.686 201.132 195.837C199.844 195.989 198.548 195.623 197.529 194.821L185.804 185.566C184.787 184.761 184.13 183.586 183.979 182.297C183.827 181.009 184.192 179.713 184.995 178.694L270.999 69.7357C271.804 68.7183 272.98 68.0618 274.268 67.9101C275.557 67.7584 276.853 68.124 277.872 68.9266L289.596 78.1812C290.614 78.9861 291.27 80.1617 291.422 81.4501C291.574 82.7385 291.208 84.0345 290.406 85.0537V85.0537ZM185.399 179.013C184.681 179.925 184.354 181.084 184.49 182.237C184.626 183.39 185.213 184.442 186.123 185.162L197.848 194.416C198.76 195.135 199.919 195.462 201.072 195.326C202.225 195.19 203.277 194.603 203.997 193.692L290.001 84.7346C290.719 83.8227 291.046 82.6631 290.911 81.5103C290.775 80.3575 290.188 79.3057 289.277 78.5855L277.553 69.3309C276.641 68.6127 275.481 68.2856 274.328 68.4213C273.176 68.5571 272.124 69.1445 271.404 70.0548L185.399 179.013Z" fill="#CCCCCC"/>
<path d="M213.004 176.907C211.961 178.229 210.548 179.212 208.946 179.731C207.344 180.251 205.623 180.284 204.002 179.825C202.382 179.367 200.933 178.439 199.84 177.157C198.747 175.876 198.058 174.299 197.861 172.626C197.664 170.953 197.968 169.259 198.733 167.759C199.499 166.259 200.692 165.019 202.162 164.197C203.633 163.375 205.314 163.007 206.993 163.14C208.672 163.273 210.274 163.901 211.596 164.945C213.367 166.346 214.509 168.392 214.773 170.635C215.037 172.877 214.401 175.133 213.004 176.907Z" fill="#E6E6E6"/>
<path d="M278.369 91.5739L222.043 162.932C221.705 163.361 221.21 163.638 220.667 163.702C220.124 163.766 219.579 163.611 219.15 163.273C218.721 162.934 218.444 162.439 218.38 161.897C218.316 161.354 218.47 160.808 218.809 160.379L275.135 89.0209C275.473 88.592 275.968 88.3151 276.511 88.2512C277.053 88.1874 277.599 88.3417 278.028 88.6802C278.457 89.0188 278.734 89.5138 278.798 90.0565C278.862 90.5992 278.707 91.145 278.369 91.5739V91.5739Z" fill="#E6E6E6"/>
<path d="M253.146 109.396L215.17 157.507C214.832 157.936 214.337 158.213 213.794 158.277C213.251 158.341 212.706 158.186 212.277 157.848C211.848 157.509 211.571 157.014 211.507 156.472C211.443 155.929 211.597 155.383 211.936 154.954L249.912 106.843C250.25 106.414 250.745 106.137 251.288 106.073C251.831 106.009 252.377 106.164 252.805 106.502C253.234 106.841 253.511 107.336 253.575 107.878C253.639 108.421 253.485 108.967 253.146 109.396V109.396Z" fill="#E6E6E6"/>
<path d="M367.384 101.54L284.731 213.061C283.957 214.103 282.802 214.795 281.519 214.985C280.235 215.176 278.929 214.85 277.886 214.079L265.886 205.185C264.844 204.411 264.152 203.256 263.961 201.973C263.771 200.69 264.097 199.383 264.868 198.34L347.522 86.8191C348.295 85.7778 349.451 85.0858 350.734 84.895C352.017 84.7043 353.323 85.0303 354.366 85.8016L366.367 94.6957C367.408 95.4693 368.1 96.6244 368.291 97.9076C368.482 99.1908 368.156 100.497 367.384 101.54ZM265.282 198.647C264.592 199.58 264.3 200.749 264.471 201.897C264.641 203.045 265.26 204.079 266.192 204.771L278.193 213.665C279.126 214.355 280.295 214.647 281.443 214.476C282.591 214.305 283.625 213.686 284.317 212.755L366.971 101.234C367.661 100.3 367.952 99.1315 367.782 97.9833C367.611 96.8352 366.992 95.8017 366.06 95.1095L354.06 86.2154C353.126 85.5253 351.958 85.2336 350.809 85.4042C349.661 85.5749 348.628 86.1941 347.936 87.1258L265.282 198.647Z" fill="#CCCCCC"/>
<path d="M292.81 195.703C291.807 197.056 290.425 198.082 288.839 198.649C287.254 199.217 285.535 199.302 283.901 198.894C282.267 198.485 280.791 197.601 279.659 196.353C278.527 195.105 277.791 193.55 277.544 191.884C277.296 190.218 277.548 188.516 278.267 186.993C278.987 185.47 280.142 184.195 281.587 183.328C283.031 182.462 284.7 182.043 286.383 182.125C288.065 182.207 289.685 182.786 291.039 183.789C292.851 185.136 294.056 187.146 294.388 189.38C294.72 191.613 294.152 193.887 292.81 195.703V195.703Z" fill="#E6E6E6"/>
<path d="M355.552 108.423L301.42 181.46C301.259 181.678 301.057 181.862 300.825 182.002C300.593 182.141 300.335 182.234 300.068 182.274C299.8 182.314 299.526 182.301 299.264 182.235C299.001 182.169 298.754 182.053 298.536 181.891C298.318 181.73 298.135 181.527 297.996 181.295C297.856 181.063 297.764 180.805 297.725 180.537C297.685 180.269 297.699 179.996 297.765 179.734C297.831 179.471 297.948 179.224 298.11 179.007L352.241 105.97C352.567 105.532 353.053 105.241 353.593 105.161C354.133 105.081 354.683 105.219 355.121 105.544C355.56 105.869 355.851 106.355 355.932 106.895C356.013 107.435 355.876 107.984 355.552 108.423Z" fill="#E6E6E6"/>
<path d="M330.882 127.003L294.385 176.246C294.06 176.685 293.574 176.977 293.033 177.057C292.493 177.138 291.942 177 291.503 176.675C291.064 176.349 290.773 175.863 290.692 175.323C290.612 174.782 290.75 174.232 291.075 173.793L327.571 124.55C327.897 124.111 328.383 123.819 328.924 123.739C329.464 123.658 330.014 123.796 330.453 124.121C330.892 124.447 331.184 124.933 331.265 125.474C331.345 126.014 331.207 126.564 330.882 127.003V127.003Z" fill="#E6E6E6"/>
<path d="M309.615 75.4504L226.971 186.978C226.2 188.022 225.873 189.328 226.064 190.611C226.255 191.895 226.947 193.05 227.989 193.823L239.99 202.716C241.033 203.488 242.34 203.814 243.623 203.623C244.907 203.432 246.062 202.74 246.835 201.698L329.479 90.1699C330.251 89.1268 330.577 87.8203 330.386 86.537C330.195 85.2537 329.503 84.0986 328.461 83.3253L316.46 74.4322C315.417 73.6607 314.11 73.3347 312.827 73.5256C311.544 73.7164 310.388 74.4087 309.615 75.4504ZM328.154 83.7391C329.086 84.4314 329.705 85.4649 329.876 86.6129C330.046 87.7609 329.755 88.9298 329.065 89.8633L246.421 201.391C245.729 202.323 244.695 202.942 243.547 203.113C242.399 203.283 241.23 202.992 240.297 202.302L228.296 193.409C227.364 192.717 226.745 191.684 226.574 190.535C226.404 189.387 226.695 188.219 227.385 187.285L310.029 75.7571C310.721 74.8255 311.755 74.2065 312.903 74.0357C314.051 73.865 315.22 74.1564 316.153 74.8461L328.154 83.7391Z" fill="#CCCCCC"/>
<path d="M254.913 184.339C253.91 185.692 252.528 186.718 250.942 187.286C249.357 187.854 247.638 187.939 246.004 187.531C244.37 187.122 242.894 186.238 241.762 184.99C240.63 183.743 239.894 182.188 239.646 180.522C239.398 178.855 239.65 177.153 240.369 175.63C241.089 174.107 242.244 172.832 243.688 171.965C245.133 171.099 246.802 170.68 248.484 170.762C250.167 170.844 251.787 171.423 253.14 172.426C254.953 173.772 256.158 175.782 256.49 178.016C256.822 180.249 256.255 182.523 254.913 184.339V184.339Z" fill="#FFA570"/>
<path d="M317.647 97.0539L263.522 170.095C263.361 170.313 263.158 170.497 262.926 170.636C262.694 170.775 262.437 170.868 262.169 170.908C261.902 170.948 261.629 170.934 261.366 170.869C261.104 170.803 260.857 170.686 260.639 170.525C260.422 170.364 260.238 170.162 260.099 169.93C259.96 169.697 259.867 169.44 259.828 169.172C259.788 168.905 259.801 168.632 259.867 168.369C259.933 168.107 260.05 167.86 260.211 167.642L314.336 94.6007C314.497 94.3831 314.699 94.1994 314.931 94.0601C315.163 93.9207 315.421 93.8284 315.688 93.7885C315.956 93.7486 316.229 93.7619 316.492 93.8275C316.754 93.8931 317.001 94.0098 317.219 94.171C317.436 94.3321 317.62 94.5345 317.759 94.7666C317.898 94.9988 317.99 95.256 318.03 95.5238C318.07 95.7915 318.056 96.0644 317.991 96.327C317.925 96.5895 317.808 96.8366 317.647 97.0539V97.0539Z" fill="#CCCCCC"/>
<path d="M292.979 115.636L256.487 164.882C256.326 165.1 256.123 165.284 255.891 165.424C255.659 165.563 255.402 165.656 255.134 165.696C254.866 165.736 254.593 165.722 254.33 165.657C254.068 165.591 253.821 165.474 253.603 165.313C253.385 165.152 253.202 164.95 253.063 164.717C252.923 164.485 252.831 164.228 252.792 163.96C252.752 163.692 252.765 163.419 252.831 163.156C252.897 162.893 253.014 162.646 253.176 162.429L289.668 113.183C289.993 112.744 290.48 112.452 291.02 112.372C291.561 112.291 292.111 112.429 292.55 112.754C292.989 113.08 293.281 113.566 293.361 114.106C293.442 114.647 293.304 115.197 292.979 115.636V115.636Z" fill="#CCCCCC"/>
<path d="M250.218 181.401C250.092 181.571 249.915 181.696 249.713 181.756L249.7 181.76L247.029 182.528C246.905 182.564 246.776 182.575 246.647 182.56C246.519 182.546 246.395 182.506 246.283 182.444C246.17 182.381 246.07 182.297 245.99 182.196C245.91 182.095 245.85 181.98 245.815 181.856C245.779 181.732 245.769 181.602 245.783 181.474C245.798 181.346 245.838 181.222 245.9 181.109C245.963 180.996 246.047 180.897 246.148 180.817C246.249 180.737 246.365 180.677 246.489 180.642L248.221 180.146L246.691 174.807C246.656 174.684 246.645 174.554 246.66 174.426C246.674 174.298 246.714 174.174 246.776 174.062C246.839 173.949 246.923 173.85 247.024 173.77C247.124 173.69 247.24 173.63 247.364 173.595L247.364 173.595L247.375 173.629L247.364 173.594C247.614 173.523 247.883 173.554 248.11 173.68C248.337 173.806 248.505 174.017 248.577 174.267L250.375 180.545C250.416 180.69 250.423 180.843 250.396 180.991C250.369 181.139 250.308 181.279 250.218 181.4L250.218 181.401Z" fill="white"/>
<path d="M184.071 72.2936L115.312 163.743C114.67 164.599 114.394 165.675 114.544 166.734C114.694 167.793 115.258 168.75 116.112 169.394L151.402 195.927C152.258 196.569 153.333 196.845 154.392 196.695C155.452 196.545 156.408 195.981 157.052 195.127L225.811 103.677C226.453 102.821 226.729 101.746 226.579 100.687C226.429 99.6275 225.865 98.671 225.011 98.0269L189.721 71.4933C188.865 70.8516 187.79 70.5755 186.731 70.7255C185.671 70.8755 184.715 71.4394 184.071 72.2936V72.2936ZM224.726 98.4063C225.48 98.9745 225.977 99.8185 226.11 100.753C226.242 101.688 225.998 102.637 225.432 103.392L156.673 194.842C156.105 195.596 155.261 196.093 154.326 196.226C153.391 196.358 152.442 196.114 151.687 195.548L116.397 169.014C115.644 168.446 115.146 167.602 115.014 166.667C114.881 165.733 115.125 164.784 115.691 164.029L184.45 72.5789C185.019 71.8251 185.863 71.3274 186.797 71.195C187.732 71.0626 188.681 71.3064 189.436 71.8727L224.726 98.4063Z" fill="#3F3D56"/>
<path d="M159.671 171.105C158.034 173.282 155.789 174.924 153.219 175.824C150.649 176.725 147.87 176.843 145.233 176.164C142.596 175.485 140.22 174.039 138.404 172.01C136.589 169.98 135.416 167.458 135.034 164.762C134.653 162.066 135.079 159.317 136.259 156.863C137.44 154.409 139.321 152.36 141.666 150.976C144.011 149.591 146.713 148.933 149.432 149.085C152.151 149.236 154.764 150.19 156.94 151.827C159.855 154.024 161.78 157.287 162.292 160.901C162.803 164.516 161.861 168.185 159.671 171.105V171.105ZM138.041 154.843C136.461 156.944 135.54 159.467 135.394 162.092C135.247 164.717 135.883 167.326 137.22 169.59C138.557 171.854 140.535 173.671 142.904 174.81C145.273 175.95 147.927 176.362 150.53 175.993C153.133 175.624 155.569 174.492 157.528 172.739C159.488 170.986 160.884 168.692 161.539 166.146C162.195 163.6 162.081 160.916 161.211 158.435C160.342 155.954 158.756 153.786 156.655 152.206C153.835 150.092 150.292 149.181 146.803 149.676C143.313 150.17 140.162 152.028 138.041 154.843Z" fill="#3F3D56"/>
<path d="M191.785 90.8683L158.832 134.696C158.372 135.309 158.167 136.076 158.26 136.837C158.352 137.597 158.736 138.293 159.33 138.777C159.359 138.803 159.389 138.828 159.421 138.851C160.05 139.322 160.841 139.525 161.62 139.415C162.398 139.305 163.102 138.89 163.575 138.262L196.528 94.4346C197.001 93.8056 197.204 93.0147 197.094 92.2358C196.983 91.4569 196.568 90.7538 195.939 90.281C195.31 89.8083 194.519 89.6046 193.74 89.7147C192.962 89.8248 192.258 90.2397 191.785 90.8683L191.785 90.8683Z" fill="#FFA570"/>
<path d="M201.082 97.8583L168.129 141.686C167.668 142.299 167.463 143.066 167.556 143.827C167.649 144.588 168.033 145.283 168.627 145.767C168.656 145.793 168.686 145.818 168.717 145.841C169.347 146.312 170.137 146.515 170.916 146.405C171.695 146.295 172.398 145.88 172.872 145.252L205.825 101.425C206.297 100.796 206.501 100.005 206.39 99.2258C206.28 98.4469 205.864 97.7438 205.236 97.2711C204.607 96.7983 203.816 96.5946 203.037 96.7047C202.258 96.8148 201.555 97.2297 201.082 97.8583L201.082 97.8583Z" fill="#FFA570"/>
<path d="M152.551 167.674C152.321 167.981 151.997 168.206 151.628 168.313L151.605 168.32L146.738 169.681C146.513 169.744 146.277 169.762 146.044 169.734C145.812 169.706 145.587 169.633 145.383 169.518C145.178 169.403 144.999 169.249 144.854 169.065C144.71 168.88 144.603 168.669 144.54 168.444C144.477 168.218 144.459 167.982 144.487 167.75C144.515 167.517 144.589 167.292 144.704 167.088C144.819 166.884 144.974 166.705 145.158 166.56C145.342 166.416 145.554 166.309 145.779 166.247L148.934 165.367L146.223 155.644C146.16 155.419 146.142 155.183 146.17 154.95C146.199 154.718 146.272 154.493 146.387 154.29C146.502 154.086 146.656 153.906 146.841 153.762C147.025 153.618 147.236 153.511 147.461 153.448L147.48 153.51L147.463 153.448C147.918 153.321 148.405 153.381 148.817 153.613C149.228 153.845 149.531 154.231 149.659 154.686L152.848 166.122C152.921 166.386 152.932 166.664 152.881 166.933C152.829 167.202 152.717 167.456 152.551 167.674L152.551 167.674Z" fill="#FFA570"/>
<path d="M401.387 244.236C401.315 249.901 401.056 256.247 400.474 262.934L416.79 242.589L416.905 242.907C415.57 238.315 413.593 233.935 411.035 229.894L411.164 230.194L401.387 244.236Z" fill="#17A6A5"/>
<path d="M401.398 243.243L410.869 229.64C408.146 225.538 404.885 222.362 401.161 220.424C400.967 220.324 400.773 220.23 400.578 220.136C400.723 221.67 401.513 230.675 401.398 243.243V243.243Z" fill="#17A6A5"/>
<path d="M418.831 282.73C419.232 280.358 419.543 277.991 419.765 275.63L395.159 294.955L395.125 294.785C394.755 296.179 394.369 297.549 393.967 298.895L418.772 282.354L418.831 282.73Z" fill="#17A6A5"/>
<path d="M397.966 281.942L419.988 261.532L420.074 261.885C419.791 255.574 418.761 249.319 417.006 243.251L400.379 263.983C399.805 270.248 399.001 276.234 397.966 281.942V281.942Z" fill="#17A6A5"/>
<path d="M399.961 263.631L370.503 234.358L370.631 234C368.242 237.813 366.244 241.858 364.668 246.072L398.19 277.864C398.988 272.895 399.558 268.096 399.96 263.631H399.961Z" fill="#17A6A5"/>
<path d="M397.421 282.312C397.646 281.098 397.858 279.892 398.055 278.694L364.409 246.784L364.534 246.424C363.977 247.909 363.455 249.442 362.967 251.022L363.089 250.661L397.421 282.312Z" fill="#17A6A5"/>
<path d="M395.335 293.974L419.736 274.809L419.807 275.175C420.192 270.895 420.288 266.593 420.094 262.299L397.775 282.985C397.063 286.788 396.25 290.45 395.335 293.974H395.335Z" fill="#17A6A5"/>
<path d="M360.629 281.013L388.219 312.998C390.091 308.802 391.71 304.497 393.067 300.108L359.862 269.041C359.789 273.169 359.994 277.298 360.473 281.399L360.629 281.013Z" fill="#17A6A5"/>
<path d="M400.108 220.135L400.332 220.019C394.54 217.343 388.476 218.017 382.823 221.397L400.945 243.246C401.066 229.649 400.122 220.27 400.108 220.135L400.108 220.135Z" fill="#17A6A5"/>
<path d="M393.264 301.182C392.016 305.134 390.552 309.014 388.882 312.806L413.914 297.962L413.961 298.332C415.715 294.935 417.032 291.33 417.88 287.602C418.206 286.135 418.497 284.667 418.751 283.197L393.65 299.935C393.522 300.352 393.395 300.771 393.264 301.182H393.264Z" fill="#17A6A5"/>
<path d="M400.934 244.259L382.396 221.909L382.538 221.567C378.297 224.178 374.295 228.316 370.821 233.705L400.039 262.74C400.609 256.129 400.863 249.858 400.934 244.259H400.934Z" fill="#17A6A5"/>
<path d="M393.304 299.337C394.916 294.007 396.239 288.594 397.268 283.122L362.852 251.393C362.2 253.537 361.616 255.761 361.101 258.067C360.391 261.37 359.984 264.732 359.885 268.109L393.28 299.353L393.304 299.337Z" fill="#17A6A5"/>
<path d="M428.755 333.666C425.086 337.983 420.839 342.705 416.126 347.484L441.67 342.221L441.555 342.539C443.455 338.151 444.727 333.517 445.334 328.774L445.242 329.087L428.755 333.666Z" fill="#17A6A5"/>
<path d="M443.769 315.182C443.684 314.981 443.594 314.784 443.504 314.589C442.637 315.862 437.502 323.302 429.398 332.908L445.368 328.472C445.887 323.576 445.402 319.05 443.769 315.182H443.769Z" fill="#17A6A5"/>
<path d="M391.692 368.604C390.518 369.442 389.347 370.251 388.178 371.031L417.833 374.113L417.638 374.439C419.46 372.868 421.209 371.244 422.886 369.566L391.609 368.757L391.692 368.604Z" fill="#17A6A5"/>
<path d="M402.071 360.524L432.05 358.851L431.891 359.178C435.698 354.136 438.894 348.662 441.414 342.869L415.384 348.232C410.946 352.691 406.508 356.788 402.071 360.524L402.071 360.524Z" fill="#17A6A5"/>
<path d="M392.37 368.113L423.387 368.916L423.208 369.243C426.235 366.192 429.053 362.94 431.642 359.51L401.258 361.206C398.285 363.68 395.322 365.983 392.37 368.113L392.37 368.113Z" fill="#17A6A5"/>
<path d="M355.45 385.576C355.657 385.342 355.865 385.103 356.08 384.854C362.319 383.483 368.369 381.365 374.101 378.547L373.653 356.3C373.87 355.718 374.079 355.133 374.28 354.544L374.756 378.226C378.874 376.189 382.866 373.906 386.711 371.39L381.452 330.203C381.665 330.075 381.883 329.945 382.104 329.811L387.357 370.946L387.384 370.948C392.024 367.871 396.496 364.546 400.779 360.988L395.304 320.477C395.515 320.303 395.726 320.127 395.938 319.949L401.414 360.461C402.361 359.67 403.293 358.876 404.21 358.08L399.253 317.036C399.463 316.843 399.673 316.647 399.882 316.451L404.844 357.527C408.628 354.208 412.128 350.875 415.286 347.694L411.269 306.359L411.596 306.165C410.465 306.531 409.32 306.947 408.165 307.402C410.233 304.744 412.067 301.913 413.648 298.94L388.377 313.926C386.778 317.444 384.948 320.853 382.901 324.13C382.451 324.605 382.005 325.087 381.565 325.582L381.629 326.085C381.433 326.377 381.235 326.666 381.037 326.953L380.952 326.285C380.7 326.574 380.452 326.87 380.203 327.165C383.193 322.917 385.777 318.396 387.919 313.663L360.53 281.911C360.875 284.861 361.335 287.824 361.877 290.757C359.291 287.06 356.219 283.728 352.744 280.851L352.959 281.096L348.001 297.473C349.683 302.883 351.398 308.999 352.912 315.537L362.013 291.482C362.082 291.846 362.152 292.209 362.224 292.572L353.146 316.565C354.536 322.7 355.622 328.642 356.402 334.39L367.786 313.997C367.874 314.275 367.962 314.552 368.05 314.827L356.543 335.441C357.041 339.277 357.4 343.012 357.619 346.646L371.758 325.564C371.854 325.824 371.95 326.079 372.043 326.329L357.755 347.634L357.671 347.482C357.75 348.922 357.806 350.344 357.839 351.749L373.982 331.309C374.089 331.574 374.188 331.818 374.281 332.042L357.859 352.836C357.866 353.272 357.876 353.709 357.879 354.141C357.913 358.285 357.721 362.428 357.304 366.551L358.872 364.767C358.594 365.44 358.324 366.104 358.061 366.758L357.17 367.772C357.099 368.386 357.021 368.994 356.939 369.599C356.635 370.384 356.343 371.149 356.062 371.895C356.29 370.493 356.487 369.082 356.653 367.663L320.791 345.932C331.121 368.432 349.332 389.348 350.497 390.676C351.28 388.984 351.987 387.255 352.617 385.487C352.831 385.453 353.044 385.419 353.258 385.384C353.184 385.596 353.112 385.809 353.036 386.02C352.925 386.036 352.813 386.059 352.701 386.077C352.794 386.097 352.891 386.118 352.992 386.14C352.544 387.378 352.065 388.588 351.556 389.77C352.274 389.046 353.349 387.926 354.65 386.478C362.888 388.08 384.988 391.238 403.309 383.618L374.286 379.042C368.304 381.994 361.977 384.189 355.452 385.576L355.45 385.576ZM373.489 348.143L374.136 347.407L374.157 348.452L373.51 349.188L373.489 348.143Z" fill="#17A6A5"/>
<path d="M443.142 314.288L443.388 314.341C440.635 308.585 435.535 305.237 429.024 304.235L429.048 332.621C437.813 322.226 443.068 314.4 443.144 314.288H443.142Z" fill="#17A6A5"/>
<path d="M386.178 372.344C382.696 374.591 379.094 376.646 375.389 378.501L404.136 383.034L403.937 383.35C407.454 381.852 410.768 379.915 413.799 377.585C414.985 376.664 416.145 375.718 417.279 374.748L387.27 371.629C386.906 371.869 386.542 372.111 386.178 372.344L386.178 372.344Z" fill="#17A6A5"/>
<path d="M415.915 347.057C420.57 342.33 424.766 337.661 428.392 333.394L428.368 304.357L428.695 304.184C423.763 303.49 418.042 304.124 411.929 306.06L415.915 347.057Z" fill="#17A6A5"/>
<path d="M352.507 280.661C348.65 277.601 344.567 275.589 340.426 274.897C340.21 274.861 339.996 274.832 339.783 274.803C340.394 276.217 343.929 284.537 347.705 296.525L352.507 280.661Z" fill="#17A6A5"/>
<path d="M352.639 316.359L315.576 297.625L315.587 297.245C314.493 301.61 313.843 306.074 313.647 310.569L355.355 330.443C354.578 325.47 353.636 320.729 352.639 316.359H352.639Z" fill="#17A6A5"/>
<path d="M355.483 331.273L313.622 311.326L313.628 310.945C313.558 312.529 313.535 314.148 313.559 315.802L313.564 315.421L355.998 334.91C355.837 333.686 355.666 332.474 355.483 331.273H355.483Z" fill="#17A6A5"/>
<path d="M357.358 353.18L316.176 333.899C317.383 337.847 318.854 341.71 320.578 345.462L320.606 345.047L356.732 366.937C357.215 362.368 357.424 357.774 357.358 353.18H357.358Z" fill="#17A6A5"/>
<path d="M339.335 274.948L339.512 274.768C333.177 274.013 327.618 276.528 323.287 281.491L347.275 296.668C343.187 283.7 339.39 275.071 339.335 274.948V274.948Z" fill="#17A6A5"/>
<path d="M347.577 297.635L323.039 282.109L323.068 281.74C319.841 285.534 317.314 290.707 315.677 296.906L352.438 315.488C350.937 309.024 349.24 302.981 347.577 297.635Z" fill="#17A6A5"/>
<path d="M357.345 352.375C357.23 346.807 356.816 341.251 356.103 335.728L313.564 316.191C313.607 318.431 313.74 320.727 313.962 323.079C314.308 326.44 314.961 329.762 315.911 333.005L357.328 352.397L357.345 352.375Z" fill="#17A6A5"/>
<path opacity="0.3" d="M311.972 200.424L209.639 187.524L209.128 191.58L311.461 204.48L311.972 200.424Z" fill="#9CFFE7"/>
<path opacity="0.3" d="M310.32 213.527L207.988 200.628L207.477 204.684L309.809 217.583L310.32 213.527Z" fill="#9CFFE7"/>
<path opacity="0.3" d="M308.669 226.631L206.336 213.732L205.825 217.787L308.157 230.687L308.669 226.631Z" fill="#9CFFE7"/>
<path opacity="0.3" d="M218.295 193.865H115.153V197.953H218.295V193.865Z" fill="#9CFFE7"/>
<path d="M151.654 191.4L108.753 158.048C108.324 157.302 107.705 156.681 106.96 156.25C106.215 155.819 105.369 155.592 104.508 155.592H81.3533C80.7102 155.592 80.0733 155.719 79.4792 155.965C78.885 156.211 78.3452 156.572 77.8904 157.026C77.4357 157.481 77.0749 158.021 76.8288 158.615C76.5827 159.209 76.4561 159.846 76.4561 160.489V364.852C76.4561 369.065 78.1296 373.105 81.1086 376.084C84.0875 379.063 88.1279 380.737 92.3407 380.737H330.029C334.242 380.737 338.282 379.063 341.261 376.084C344.24 373.105 345.914 369.065 345.914 364.852V205.838C345.914 202.009 344.393 198.337 341.685 195.629C338.978 192.921 335.305 191.4 331.476 191.4H151.654Z" fill="#292929"/>
<path d="M337.83 238.794H294.717V253.883H337.83V238.794Z" fill="#17A6A5"/>
<path d="M0.623291 411.785C0.623291 411.785 197.806 299.017 435.913 411.785Z" fill="#F2F2F2"/>
<path d="M42.8544 153.005C42.8544 153.005 44.9707 164.221 43.4893 165.068C42.2928 165.82 41.1603 166.669 40.1033 167.607L43.9126 172.898L53.0126 174.803L61.6893 166.761V158.719C61.6893 158.719 59.1498 154.698 59.573 152.158C59.9963 149.619 42.8544 153.005 42.8544 153.005V153.005Z" fill="#FBBEBE"/>
<path opacity="0.1" d="M42.8544 153.005C42.8544 153.005 44.9707 164.221 43.4893 165.068C42.2928 165.82 41.1603 166.669 40.1033 167.607L43.9126 172.898L53.0126 174.803L61.6893 166.761V158.719C61.6893 158.719 59.1498 154.698 59.573 152.158C59.9963 149.619 42.8544 153.005 42.8544 153.005V153.005Z" fill="black"/>
<path d="M28.2522 172.263L26.9825 172.898C26.9825 172.898 24.2313 173.956 22.9616 183.056C21.6918 192.156 18.729 213.954 19.5755 214.589C20.422 215.223 19.9988 219.456 19.9988 219.456L26.3476 186.23L28.2522 172.263Z" fill="#2F2E41"/>
<path d="M43.3008 120.614C43.1072 121.018 43.0393 121.49 42.8577 121.901C42.0329 123.77 39.6849 123.352 37.9913 124.059C36.557 124.657 35.4865 126.301 35.3743 128.078C35.3267 128.832 35.4372 129.593 35.3696 130.345C35.2444 131.734 34.5281 132.957 34.2731 134.322C33.6538 137.637 35.0989 142.873 36.7305 141.084C37.2451 140.519 37.8891 140.145 38.4449 139.638C39.8883 138.319 40.6234 136.221 41.7959 134.575C41.9442 134.334 42.1483 134.132 42.3911 133.985C43.2478 133.56 44.0105 134.699 44.6878 135.446C45.0325 135.822 45.4534 136.121 45.9224 136.322C46.3915 136.523 46.898 136.622 47.4083 136.613C47.9186 136.603 48.421 136.485 48.8821 136.266C49.3431 136.047 49.7523 135.732 50.0824 135.343C50.2891 135.042 50.5462 134.78 50.8424 134.566C51.1728 134.414 51.5449 134.378 51.8986 134.463C53.5686 134.757 55.0729 135.653 56.1272 136.981C56.6927 137.673 57.1657 138.487 57.8435 139.024C58.5214 139.56 59.5103 139.737 60.1208 139.099C61.3494 139.968 61.8077 141.812 61.811 143.491C61.8143 145.17 61.4702 146.839 61.5541 148.515C61.638 150.191 62.2961 152 63.632 152.615C63.8423 151.089 64.6346 149.703 65.8431 148.747C66.7529 148.07 67.8587 147.734 68.6282 146.85C70.1686 145.081 69.6805 142.138 69.7397 139.613C69.8126 136.5 70.8917 133.523 71.0823 130.416C71.1776 128.864 71.0172 127.199 70.2 125.97C69.5815 125.152 68.7975 124.472 67.899 123.977L60.6351 119.317C60.3126 119.078 59.9469 118.905 59.5582 118.806C58.4889 118.614 57.5646 119.617 56.5509 120.059C55.7054 120.359 54.8042 120.468 53.9115 120.379C51.0916 120.303 50.2979 120.85 48.4025 119.013C48.255 118.864 48.0745 118.752 47.8755 118.685C47.6766 118.619 47.4649 118.6 47.2574 118.631C46.1238 118.811 43.9209 119.32 43.3007 120.614H43.3008Z" fill="#2F2E41"/>
<path d="M51.7426 386.007L43.0658 388.97L38.6218 386.642L39.6802 376.272H47.2986L51.7426 386.007Z" fill="#FBBEBE"/>
<path d="M43.2777 384.526C43.2777 384.526 36.294 380.293 35.0242 381.775C33.7544 383.256 23.5963 394.049 23.5963 394.049C23.5963 394.049 7.93582 402.514 19.9986 403.784C32.0614 405.054 51.7428 396.377 51.7428 396.377C51.7428 396.377 52.8009 384.949 51.9544 384.737C51.1079 384.526 47.5102 386.642 45.8172 386.007C44.8822 385.684 44.0195 385.181 43.2777 384.526H43.2777Z" fill="#1D1D1D"/>
<path d="M47.2988 392.779L49.8382 383.891L58.7265 386.642V395.319L47.2988 392.779Z" fill="#FBBEBE"/>
<path d="M47.087 389.605C47.087 389.605 58.7265 387.7 59.7847 393.414C60.8428 399.128 63.5939 407.593 60.8428 409.709C58.0916 411.826 43.9126 414.577 43.7009 410.979C43.4893 407.382 45.1823 400.398 45.1823 400.398C45.1823 400.398 46.2405 394.896 45.6056 393.414C44.9707 391.933 47.087 389.605 47.087 389.605V389.605Z" fill="#1D1D1D"/>
<path d="M23.8389 246.702C23.8389 246.702 14.2847 307.282 22.115 336.91C29.9452 366.537 35.4475 384.103 35.4475 384.103C35.4475 384.103 48.9917 380.293 48.9917 377.754C48.9917 375.214 43.701 337.544 42.4312 333.947C41.1615 330.349 39.0452 329.079 40.9498 326.117C42.8545 323.154 46.0289 304.107 46.0289 304.107C46.0289 304.107 53.0126 335.64 53.4359 336.486C53.8592 337.333 48.9917 385.796 48.9917 385.796C48.9917 385.796 62.9614 395.933 63.8057 388.335C64.0173 386.431 73.3289 318.921 73.3289 318.075C73.3289 317.228 77.1382 252.47 71.001 249.296C64.8638 246.121 23.8389 246.702 23.8389 246.702Z" fill="#3D3D3D"/>
<path d="M51.108 157.237C59.0557 157.237 65.4987 150.794 65.4987 142.847C65.4987 134.899 59.0557 128.456 51.108 128.456C43.1602 128.456 36.7173 134.899 36.7173 142.847C36.7173 150.794 43.1602 157.237 51.108 157.237Z" fill="#FBBEBE"/>
<path d="M47.9336 171.417V169.935L43.7011 162.951C43.7011 162.951 39.4685 163.375 38.8336 165.279C38.1987 167.184 31.0034 182.421 31.0034 182.421L23.3848 250.777C23.3848 250.777 44.3359 255.856 47.5104 252.258C50.6848 248.661 62.7476 170.358 62.7476 170.358L64.4406 160.835C64.4406 160.835 61.5335 156.603 60.8708 157.237C60.208 157.872 49.2034 170.147 49.2034 170.147L48.9917 172.051L47.9336 171.417Z" fill="#17A6A5"/>
<path d="M43.5951 161.576C43.5951 161.576 39.6799 160.623 38.4102 162.951C37.1404 165.279 37.1404 166.126 35.8706 166.972C34.6009 167.819 27.1939 171.628 26.7706 173.11C26.3474 174.591 17.2474 221.361 17.2474 221.361C17.2474 221.361 12.8032 235.328 14.9195 244.851C17.0358 254.375 15.5544 256.279 19.9985 257.126C24.4427 257.972 25.0776 257.972 25.0776 256.703C25.0776 255.433 30.7916 212.472 34.8125 209.51C38.8334 206.547 37.7753 174.168 37.7753 174.168C37.7753 174.168 43.4892 167.184 43.4892 166.126C43.4892 165.068 44.4416 161.496 43.5951 161.576H43.5951Z" fill="#3D3D3D"/>
<path d="M55.5522 169.3C56.1426 169.399 64.2289 158.93 64.8638 159.354C65.4987 159.777 68.6731 165.279 69.0964 165.279C69.5196 165.279 87.508 169.723 88.9894 177.977C90.4708 186.23 78.6196 212.472 78.6196 212.472C78.6196 212.472 73.5405 227.498 74.5987 234.058C75.3166 239.054 75.1734 244.136 74.1754 249.084C73.7522 250.777 72.2708 252.682 72.694 253.528C73.1173 254.375 63.3824 252.47 59.3615 254.798C55.3405 257.126 37.3522 258.819 38.4103 256.279C39.4684 253.74 40.1034 243.793 43.0661 233.212C46.0289 222.63 53.6475 197.658 52.3777 195.965C51.108 194.272 54.2824 169.089 55.5522 169.3V169.3Z" fill="#3D3D3D"/>
<path d="M86.4499 175.437L89.201 177.977C89.201 177.977 92.3755 183.479 91.9522 186.019C91.5289 188.558 100.841 226.863 97.0313 228.133C93.2219 229.403 84.122 235.751 83.0638 237.444C82.0057 239.137 79.4662 242.1 77.7731 242.947C76.0801 243.793 74.3871 245.275 73.3289 244.428C72.2708 243.582 69.9429 226.228 71.6359 225.593C73.3289 224.958 75.022 223.054 76.715 223.054C78.408 223.054 79.4661 221.361 79.4661 219.879C79.4661 218.398 78.1964 209.51 78.1964 209.51L75.4452 188.558L86.4499 175.437Z" fill="#3D3D3D"/>
<path d="M45.8397 122.72C45.6686 123.025 45.6085 123.382 45.4479 123.693C44.7186 125.106 42.6425 124.79 41.1451 125.324C40.5122 125.561 39.9592 125.972 39.5497 126.509C39.1403 127.047 38.8912 127.689 38.8311 128.362C38.789 128.932 38.8868 129.507 38.8267 130.076C38.716 131.126 38.0827 132.051 37.8573 133.082C37.3097 135.589 38.5874 139.546 40.0301 138.194C40.4851 137.767 41.0545 137.485 41.5459 137.101C42.8222 136.104 43.4722 134.518 44.5089 133.274C44.6467 133.086 44.827 132.933 45.0352 132.828C45.7927 132.506 46.4671 133.368 47.0659 133.932C47.7286 134.514 48.5841 134.829 49.4659 134.814C50.3477 134.8 51.1926 134.458 51.8358 133.854C52.0247 133.622 52.252 133.423 52.5078 133.267C52.8051 133.152 53.1294 133.125 53.4417 133.189C54.8666 133.385 56.1838 134.056 57.1807 135.092C57.6305 135.659 58.1392 136.177 58.6983 136.637C59.2976 137.042 60.1721 137.176 60.7118 136.694C61.7982 137.351 62.2034 138.744 62.2063 140.014C62.2092 141.283 61.905 142.544 61.9792 143.812C62.0534 145.079 62.6353 146.447 63.8165 146.912C63.925 146.316 64.1545 145.75 64.4908 145.247C64.8271 144.744 65.263 144.315 65.7716 143.987C66.5761 143.475 67.5539 143.222 68.2342 142.553C69.5963 141.216 69.1647 138.991 69.217 137.082C69.2815 134.729 70.2356 132.478 70.4042 130.13C70.4885 128.956 70.3466 127.698 69.6241 126.769C69.0552 126.134 68.3629 125.621 67.5895 125.262L61.1667 121.739C60.8742 121.556 60.552 121.425 60.2145 121.353C59.269 121.208 58.4518 121.966 57.5555 122.3C56.7998 122.528 56.0079 122.61 55.2217 122.542C52.7283 122.485 52.0265 122.898 50.3506 121.51C50.2109 121.394 50.0489 121.309 49.8747 121.259C49.7004 121.209 49.5178 121.196 49.3382 121.221C48.3359 121.357 46.3881 121.741 45.8397 122.72V122.72Z" fill="#2F2E41"/>
</svg>
