<svg width="605" height="271" viewBox="0 0 605 271" fill="none" xmlns="http://www.w3.org/2000/svg">
<g clip-path="url(#clip0)">
<path d="M287.03 269.716H415.637C420.714 269.716 420.722 261.822 415.637 261.822H287.03C281.953 261.822 281.944 269.716 287.03 269.716Z" fill="#E6E6E6"/>
<path d="M252.308 98.1707H124.133C122.779 98.1723 121.481 98.7112 120.524 99.6691C119.566 100.627 119.028 101.926 119.026 103.28V128.755C125.42 128.906 129.57 134.184 130.575 140.592V163.687H131.061C131.138 163.687 131.212 163.718 131.266 163.772C131.321 163.827 131.352 163.901 131.352 163.978V176.267C131.352 176.344 131.321 176.418 131.266 176.473C131.212 176.528 131.138 176.558 131.061 176.559H130.575V250.835C130.575 252.467 130.559 255.445 130.559 255.445H252.308C253.662 255.443 254.96 254.904 255.917 253.946C256.875 252.988 257.413 251.69 257.415 250.335V103.28C257.413 101.926 256.875 100.627 255.917 99.6691C254.96 98.7112 253.662 98.1723 252.308 98.1707Z" fill="#DF8654"/>
<path d="M490.452 14.3477V153.745H266.28V92.3714C266.277 89.5846 265.169 86.9127 263.199 84.9421C261.23 82.9716 258.559 81.8634 255.774 81.8607H213.732V14.3477H490.452Z" fill="#DF8654"/>
<path d="M504.293 173.397H266.53V172.425H503.322V8.25699C503.32 6.32541 502.552 4.47356 501.187 3.10772C499.821 1.74189 497.97 0.973596 496.04 0.971407H205.241C203.31 0.973597 201.459 1.74189 200.094 3.10772C198.729 4.47356 197.961 6.32541 197.959 8.25699V81.2313H196.988V8.25699C196.99 6.06786 197.861 3.96909 199.408 2.42114C200.955 0.873189 203.053 0.00246375 205.241 0H496.04C498.228 0.00246027 500.326 0.873179 501.873 2.42113C503.42 3.96908 504.29 6.06786 504.293 8.25699V173.397Z" fill="#3F3D56" stroke="#D4D9D7"/>
<path d="M481.764 203.025H266.53V202.053H481.764C487.48 202.047 492.959 199.772 497.001 195.729C501.042 191.686 503.315 186.203 503.322 180.485V173.397H266.53V172.425H504.293V180.485C504.286 186.461 501.91 192.19 497.687 196.416C493.463 200.641 487.737 203.018 481.764 203.025Z" fill="#3F3D56" stroke="#D4D9D7"/>
<path d="M417.887 250.624C405.888 239.097 397.995 224.057 395.458 203.025H307.027C306.127 222.702 298.284 237.459 284.136 250.572L282.642 250.624C297.238 237.389 305.278 222.524 306.077 202.519L306.095 202.053H396.321L396.371 202.483C398.863 223.871 406.921 239.008 419.216 250.546L417.887 250.624Z" fill="#3F3D56" stroke="#D4D9D7"/>
<path d="M255.539 270.719H119.316V269.747H255.539C258.324 269.744 260.995 268.636 262.964 266.665C264.934 264.695 266.041 262.023 266.045 259.237V92.5943C266.041 89.8078 264.934 87.1363 262.964 85.1659C260.995 83.1956 258.324 82.0872 255.539 82.0841H119.316C116.531 82.0872 113.861 83.1956 111.892 85.1659C109.922 87.1363 108.814 89.8078 108.811 92.5943V128.557H107.84V92.5943C107.844 89.5503 109.054 86.6319 111.205 84.4794C113.357 82.3269 116.274 81.1161 119.316 81.1127H255.539C258.582 81.1161 261.499 82.3269 263.65 84.4794C265.802 86.6319 267.012 89.5503 267.015 92.5943V259.237C267.012 262.281 265.802 265.199 263.65 267.352C261.499 269.504 258.582 270.715 255.539 270.719Z" fill="#3F3D56" stroke="#D4D9D7"/>
<path d="M187.428 93.4024C186.777 93.4024 186.14 93.2092 185.599 92.8473C185.057 92.4854 184.636 91.971 184.386 91.3692C184.137 90.7674 184.072 90.1052 184.199 89.4663C184.326 88.8274 184.64 88.2405 185.1 87.7799C185.56 87.3193 186.147 87.0056 186.785 86.8785C187.424 86.7514 188.086 86.8166 188.687 87.0659C189.289 87.3151 189.803 87.7373 190.165 88.2789C190.527 88.8205 190.72 89.4573 190.72 90.1087C190.719 90.9819 190.372 91.8191 189.754 92.4365C189.137 93.054 188.301 93.4014 187.428 93.4024ZM187.428 87.5765C186.927 87.5765 186.438 87.725 186.022 88.0033C185.605 88.2815 185.281 88.677 185.089 89.1397C184.898 89.6025 184.848 90.1116 184.945 90.6028C185.043 91.0941 185.284 91.5453 185.638 91.8994C185.992 92.2536 186.443 92.4947 186.934 92.5924C187.425 92.6901 187.934 92.64 188.396 92.4483C188.859 92.2566 189.254 91.932 189.532 91.5156C189.81 91.0991 189.959 90.6095 189.959 90.1087C189.958 89.4373 189.691 88.7937 189.217 88.319C188.742 87.8443 188.099 87.5773 187.428 87.5765Z" fill="#3F3D56"/>
<path d="M187.428 266.995C186.597 266.995 185.785 266.749 185.094 266.287C184.403 265.825 183.865 265.169 183.547 264.401C183.229 263.633 183.146 262.788 183.308 261.973C183.47 261.158 183.87 260.409 184.457 259.821C185.045 259.233 185.793 258.833 186.608 258.671C187.423 258.509 188.268 258.592 189.035 258.91C189.803 259.228 190.459 259.767 190.92 260.458C191.382 261.149 191.628 261.961 191.628 262.793C191.627 263.907 191.184 264.975 190.397 265.763C189.609 266.551 188.541 266.994 187.428 266.995ZM187.428 259.561C186.789 259.561 186.164 259.751 185.633 260.106C185.102 260.461 184.688 260.966 184.444 261.556C184.199 262.147 184.135 262.796 184.26 263.423C184.385 264.05 184.692 264.626 185.144 265.078C185.596 265.529 186.171 265.837 186.798 265.962C187.424 266.086 188.074 266.022 188.664 265.778C189.254 265.533 189.758 265.119 190.113 264.588C190.468 264.056 190.657 263.432 190.657 262.793C190.656 261.936 190.316 261.115 189.71 260.509C189.105 259.903 188.284 259.562 187.428 259.561Z" fill="#3F3D56"/>
<path d="M117.949 271H72.8551C69.4603 270.996 66.2057 269.645 63.8053 267.244C61.4048 264.842 60.0546 261.586 60.0508 258.189V141.367C60.0546 137.971 61.4049 134.715 63.8053 132.313C66.2057 129.912 69.4603 128.561 72.855 128.557H117.949C121.343 128.561 124.598 129.912 126.998 132.313C129.399 134.715 130.749 137.971 130.753 141.367V162.273C130.983 162.369 131.179 162.531 131.317 162.739C131.456 162.946 131.53 163.19 131.53 163.439L131.53 177.042C131.529 177.291 131.456 177.535 131.317 177.742C131.179 177.95 130.983 178.112 130.753 178.208V258.19C130.749 261.586 129.399 264.842 126.998 267.244C124.598 269.645 121.343 270.996 117.949 271ZM72.855 129.528C69.7177 129.532 66.71 130.78 64.4916 133C62.2732 135.219 61.0253 138.228 61.0217 141.367V258.189C61.0252 261.328 62.2731 264.338 64.4915 266.557C66.7099 268.777 69.7177 270.025 72.855 270.029H117.949C121.086 270.025 124.094 268.777 126.312 266.557C128.53 264.338 129.778 261.329 129.782 258.19V177.333H130.267C130.345 177.333 130.419 177.303 130.473 177.248C130.528 177.193 130.559 177.119 130.559 177.042L130.559 163.439C130.559 163.362 130.528 163.287 130.473 163.233C130.419 163.178 130.345 163.147 130.267 163.147H129.782V141.367C129.778 138.228 128.53 135.219 126.312 133C124.094 130.78 121.086 129.532 117.949 129.528H72.855Z" fill="#3F3D56" stroke="#D4D9D7"/>
<path d="M118.445 132.249H112.559C112.83 132.913 112.933 133.633 112.86 134.347C112.787 135.06 112.539 135.744 112.14 136.34C111.74 136.935 111.2 137.422 110.567 137.76C109.935 138.097 109.229 138.273 108.512 138.273H82.6789C81.9622 138.273 81.2565 138.097 80.624 137.76C79.9914 137.422 79.4515 136.935 79.0517 136.34C78.6519 135.744 78.4046 135.06 78.3314 134.347C78.2583 133.633 78.3616 132.913 78.6323 132.249H73.1346C70.6947 132.249 68.3548 133.219 66.6296 134.945C64.9043 136.671 63.9351 139.012 63.9351 141.453V258.104C63.9351 260.545 64.9043 262.886 66.6295 264.612C68.3548 266.338 70.6947 267.308 73.1346 267.308H118.445C120.885 267.308 123.225 266.338 124.95 264.612C126.676 262.886 127.645 260.545 127.645 258.104V141.453C127.645 139.012 126.676 136.671 124.95 134.945C123.225 133.219 120.885 132.249 118.445 132.249Z" fill="#DF8654"/>
<path d="M604.422 270.81H0.578042C0.501968 270.81 0.426597 270.795 0.356239 270.766C0.285882 270.737 0.221922 270.695 0.168038 270.641C0.114155 270.587 0.0714044 270.524 0.0422328 270.453C0.0130611 270.383 -0.00195312 270.308 -0.00195312 270.232C-0.00195312 270.155 0.0130611 270.08 0.0422328 270.01C0.0714044 269.94 0.114155 269.876 0.168038 269.822C0.221922 269.768 0.285882 269.726 0.356239 269.697C0.426597 269.668 0.501968 269.653 0.578042 269.653H604.422C604.498 269.653 604.573 269.668 604.644 269.697C604.714 269.726 604.778 269.768 604.832 269.822C604.886 269.876 604.929 269.94 604.958 270.01C604.987 270.08 605.002 270.155 605.002 270.232C605.002 270.308 604.987 270.383 604.958 270.453C604.929 270.524 604.886 270.587 604.832 270.641C604.778 270.695 604.714 270.737 604.644 270.766C604.573 270.795 604.498 270.81 604.422 270.81Z" fill="#3F3D56" stroke="#D4D9D7"/>
<path d="M418.186 270.538H283.71C282.37 270.539 281.044 270.276 279.806 269.764C278.568 269.251 277.443 268.5 276.496 267.553C275.548 266.606 274.796 265.481 274.284 264.243C273.771 263.005 273.507 261.678 273.507 260.338C273.507 258.998 273.771 257.671 274.284 256.433C274.796 255.195 275.548 254.07 276.496 253.123C277.443 252.175 278.568 251.424 279.806 250.912C281.044 250.4 282.37 250.137 283.71 250.138H418.186C420.889 250.14 423.48 251.216 425.39 253.128C427.3 255.041 428.373 257.634 428.373 260.338C428.373 263.042 427.3 265.635 425.39 267.547C423.48 269.46 420.889 270.535 418.186 270.538ZM283.71 251.109C281.264 251.109 278.917 252.082 277.188 253.812C275.458 255.543 274.486 257.89 274.486 260.338C274.486 262.785 275.458 265.133 277.188 266.863C278.917 268.594 281.264 269.566 283.71 269.566H418.186C420.633 269.566 422.979 268.594 424.709 266.863C426.439 265.133 427.41 262.785 427.41 260.338C427.41 257.89 426.439 255.543 424.709 253.812C422.979 252.082 420.633 251.109 418.186 251.109H283.71Z" fill="#3F3D56" stroke="#D4D9D7"/>
<path d="M515.83 192.877L519.596 200.755L551.76 189.971L546.202 178.343L515.83 192.877Z" fill="#FFB8B8"/>
<path d="M519.548 219.448L507.711 194.688L517.273 190.113L524.886 206.037C526.006 208.38 526.15 211.073 525.286 213.522C524.422 215.971 522.621 217.977 520.279 219.098L519.548 219.448Z" fill="#2F2E41"/>
<path d="M508.248 263.23L516.971 262.935L517.338 228.962L507.112 229.566L508.248 263.23Z" fill="#FFB8B8"/>
<path d="M533.898 270.938H506.465V260.334H524.109C526.705 260.334 529.195 261.365 531.031 263.202C532.867 265.038 533.898 267.529 533.898 270.127V270.938Z" fill="#2F2E41"/>
<path d="M508.965 258.126C508.234 258.126 507.523 257.881 506.947 257.43C506.372 256.978 505.964 256.346 505.789 255.636C501.01 236.426 483.228 139.636 498.953 120.627L499.09 120.461L499.298 120.408C500.402 120.129 521.21 113.683 533.42 123.744L533.563 123.861L540.358 143.541L558.676 170.746C559.679 172.235 560.373 173.912 560.716 175.675C561.06 177.438 561.047 179.252 560.677 181.01C560.307 182.768 559.588 184.433 558.563 185.908C557.538 187.383 556.227 188.637 554.709 189.595L530.655 204.782C530.074 205.133 529.398 205.296 528.721 205.248C528.044 205.2 527.398 204.944 526.872 204.515C526.43 204.149 526.09 203.675 525.885 203.139L520.83 190.496C520.529 189.729 520.524 188.878 520.816 188.108C521.109 187.338 521.678 186.705 522.413 186.332L533.682 180.695C533.991 180.524 534.258 180.289 534.466 180.004C534.674 179.72 534.817 179.393 534.886 179.047C534.916 178.735 534.871 178.419 534.753 178.128C534.635 177.836 534.449 177.578 534.209 177.374L521.127 166.092C520.836 165.841 520.478 165.68 520.098 165.63C519.717 165.579 519.33 165.641 518.984 165.808C518.638 165.975 518.348 166.239 518.15 166.568C517.951 166.897 517.853 167.277 517.868 167.661L521.111 253.314C521.141 254.118 520.876 254.905 520.365 255.527C519.854 256.148 519.133 256.561 518.338 256.687L509.491 258.085C509.317 258.113 509.141 258.126 508.965 258.126Z" fill="#212121"/>
<path d="M531.532 127.235C531.458 127.235 531.384 127.232 531.309 127.227L498.685 124.809C498.232 124.776 497.793 124.639 497.402 124.409C497.01 124.179 496.677 123.862 496.428 123.482C496.179 123.102 496.021 122.67 495.966 122.219C495.911 121.768 495.961 121.31 496.111 120.882C498.118 115.093 498.365 108.839 496.819 102.91C494.694 94.5284 494.644 78.9431 494.803 70.3992C494.839 68.9508 495.42 67.5692 496.429 66.5301C497.438 65.491 498.802 64.8707 500.248 64.7931L500.248 64.7815L500.906 64.7895C506.22 64.864 515.974 65.2434 523.954 66.9047C526.644 67.4617 529.064 68.9182 530.816 71.0345C532.568 73.1508 533.547 75.8008 533.593 78.5483C533.774 86.4807 533.801 97.2175 532.901 103.321C532.142 108.47 533.544 118.358 534.447 123.794C534.517 124.217 534.494 124.651 534.38 125.065C534.266 125.478 534.063 125.862 533.786 126.189C533.508 126.517 533.163 126.78 532.774 126.96C532.385 127.141 531.961 127.235 531.532 127.235Z" fill="#17A6A5"/>
<path d="M543.179 158.35C542.31 157.933 541.543 157.331 540.931 156.586C540.32 155.841 539.879 154.971 539.64 154.037C539.401 153.103 539.37 152.127 539.549 151.18C539.727 150.233 540.111 149.336 540.674 148.553L525.606 83.5461H536.997L550.295 147.272C551.547 148.304 552.377 149.76 552.628 151.364C552.879 152.968 552.533 154.608 551.655 155.973C550.778 157.339 549.431 158.335 547.869 158.773C546.306 159.211 544.638 159.06 543.179 158.35H543.179Z" fill="#FFB8B8"/>
<path d="M471.817 90.5882L489.857 73.5156L496.653 83.0346L479.662 97.9932L501.944 115.696C502.105 115.685 502.266 115.672 502.429 115.672C503.801 115.67 505.143 116.064 506.296 116.806C507.45 117.548 508.365 118.607 508.932 119.856C509.5 121.104 509.696 122.49 509.497 123.847C509.298 125.205 508.712 126.476 507.81 127.509C506.907 128.542 505.727 129.293 504.409 129.672C503.091 130.051 501.692 130.042 500.379 129.647C499.067 129.252 497.895 128.486 497.006 127.442C496.116 126.398 495.546 125.12 495.364 123.76L495.294 123.831L472.103 103.723C471.168 102.912 470.413 101.914 469.887 100.794C469.361 99.6742 469.075 98.4562 469.048 97.2188C469.022 95.9815 469.254 94.7522 469.731 93.6102C470.208 92.4682 470.918 91.4387 471.817 90.5882Z" fill="#FFB8B8"/>
<path d="M526.806 87.7115C526.248 87.7133 525.701 87.5562 525.23 87.2588C524.758 86.9613 524.38 86.5357 524.141 86.0316C522.704 82.9955 521.714 79.7669 521.204 76.4466C520.421 71.0233 524.19 67.797 528.023 67.0942C531.752 66.4103 536.294 68.0504 537.455 73.2666C537.552 73.7082 537.627 74.1544 537.68 74.6035C538.144 78.5576 538.582 81.6329 538.98 83.7446C539.058 84.1597 539.046 84.5869 538.945 84.9971C538.844 85.4073 538.657 85.7912 538.395 86.1228C538.134 86.4545 537.804 86.7262 537.429 86.9197C537.053 87.1132 536.641 87.2239 536.219 87.2445L526.957 87.7077C526.907 87.7102 526.856 87.7115 526.806 87.7115Z" fill="#17A6A5"/>
<path d="M513.89 59.1937C524.784 59.1937 533.615 50.3579 533.615 39.4584C533.615 28.5589 524.784 19.7231 513.89 19.7231C502.995 19.7231 494.164 28.5589 494.164 39.4584C494.164 50.3579 502.995 59.1937 513.89 59.1937Z" fill="#212121"/>
<path d="M514.009 60.7386C522.928 60.7386 530.158 53.5048 530.158 44.5813C530.158 35.6579 522.928 28.424 514.009 28.424C505.089 28.424 497.859 35.6579 497.859 44.5813C497.859 53.5048 505.089 60.7386 514.009 60.7386Z" fill="#FFB8B8"/>
<path d="M485.344 79.8483C484.932 79.4726 484.635 78.9873 484.488 78.4491C484.341 77.9108 484.35 77.3419 484.514 76.8086C485.505 73.5988 486.956 70.5497 488.822 67.7565C491.907 63.2294 496.865 63.3987 500.165 65.4717C503.376 67.4879 505.617 71.767 502.95 76.3973C502.724 76.7886 502.478 77.1684 502.213 77.535C499.885 80.7642 498.131 83.3271 496.998 85.1529C496.776 85.5117 496.478 85.8186 496.127 86.0529C495.776 86.2872 495.378 86.4435 494.961 86.5112C494.545 86.5788 494.118 86.5563 493.711 86.4452C493.303 86.3341 492.924 86.137 492.6 85.8671L485.458 79.9477C485.419 79.9154 485.381 79.8823 485.344 79.8483Z" fill="#17A6A5"/>
<path d="M510.058 21.8331C506.088 19.4636 505.229 13.5628 507.594 9.58943C509.958 5.61603 514.738 3.54335 519.358 3.40674C525.958 3.21161 532.331 6.4992 536.951 11.2186C541.57 15.938 544.619 21.9792 546.942 28.1625C549.265 34.3459 550.932 40.7589 553.221 46.9549C554.396 50.1343 555.842 53.3989 558.529 55.4636C561.216 57.5282 565.487 57.9007 567.784 55.409C567.776 59.3962 564.72 63.0208 560.931 64.2553C557.141 65.4898 552.854 64.5576 549.532 62.355C543.769 58.5339 540.987 51.5589 539.396 44.8273C537.806 38.0958 537.022 31.042 533.824 24.9093C532.499 22.3684 530.684 19.9546 528.129 18.6581C525.574 17.3616 522.171 17.4467 520.116 19.4434C519.164 20.3682 518.548 21.6292 517.468 22.4001C516.784 22.8278 516.012 23.0935 515.21 23.1771C514.408 23.2606 513.598 23.1597 512.841 22.8821C511.333 22.3149 509.922 21.5183 508.658 20.5204" fill="#212121"/>
<path d="M497.143 33.6643C498.699 35.7579 500.663 37.5146 502.916 38.8286C505.169 40.1426 507.665 40.9866 510.252 41.3098C512.84 41.6329 515.467 41.4286 517.974 40.709C520.48 39.9895 522.816 38.7696 524.838 37.1229C526.407 35.8465 527.863 34.0875 527.765 32.0675C527.664 29.9983 525.973 28.3732 524.248 27.2288C519.707 24.2431 514.246 22.9877 508.859 23.6912C505.785 24.1045 502.702 25.2254 500.525 27.4358C498.348 29.6461 497.263 33.0838 498.386 35.9764" fill="#212121"/>
</g>
<defs>
<clipPath id="clip0">
<rect width="605" height="271" fill="white"/>
</clipPath>
</defs>
</svg>
